Genre:Animation | Comedy | Family
Language:English
IMDb: http://www.imdb.com/title/tt1154826/
Source:DVDR-TWiZTED
.........................................
General
Complete name : The Penguins Of Madagascar Happy King Julien Day 2010 DVDRIP.H264.FEEL-FREE
Format : MPEG-4
Format profile : Base Media
Codec ID : isom
File size : 719 MiB
Duration : 1h 52mn
.........................................

Aided by his servants Mort and Maurice, pint-sized party animal King Julien repeatedly clashes with the penguins and other zoo animals as he invents a holiday to honor himself, steals a helmet with magical powers and misplaces his precious crown. This collection of animated episodes also finds the hilariously bossy lemur upsetting a grumpy kangaroo, becoming jealous of Mort and reluctantly handing over power to Maurice.

 
http://www.starshare.ro/bitbucket/The%20Penguins%20Of%20Madagascar%20Happy%20King%20Julien%20Day%202010%20DVDRIP.H264.FEEL-FREE.mp4_thumbs_%5B2010.08.06_22.34.52%5D.jpg


Video
ID : 1
Format : AVC
Format/Info : Advanced Video Codec
Format profile : Main@L1.3
Format settings, CABAC : Yes
Format settings, ReFrames : 1 frame
Codec ID : avc1
Codec ID/Info : Advanced Video Coding
Duration : 1h 52mn
Bit rate mode : Variable
Bit rate : 723 Kbps
Width : 652 pixels
Height : 352 pixels
Display aspect ratio : 1.852
Frame rate mode : Constant
Frame rate : 29.970 fps
Resolution : 24 bits
Colorimetry : 4:2:0
Scan type : Progressive
Bits/(Pixel*Frame) : 0.105
Stream size : 582 MiB (81%)
........................................
Audio
ID : 2
Format : AAC
Format/Info : Advanced Audio Codec
Format version : Version 4
Format profile : LC
Format settings, SBR : No
Codec ID : 40
Duration : 1h 52mn
Bit rate mode : Variable
Bit rate : 165 Kbps
Channel(s) : 2 channels
Channel positions : L R
Sampling rate : 48.0 KHz
Resolution : 16 bits
Stream size : 133 MiB (19%)